<?xml version="1.0" standalone="no"?>
<!DOCTYPE svg PUBLIC "-//W3C//DTD SVG 20010904//EN"
 "http://www.w3.org/TR/2001/REC-SVG-20010904/DTD/svg10.dtd">
<svg version="1.0" xmlns="http://www.w3.org/2000/svg"
 width="1424.000000pt" height="1424.000000pt" viewBox="0 0 1424.000000 1424.000000"
 preserveAspectRatio="xMidYMid meet">
<metadata>
Created by potrace 1.14, written by Peter Selinger 2001-2017
</metadata>
<g transform="translate(0.000000,1424.000000) scale(0.100000,-0.100000)"
fill="#000000" stroke="none">
<path d="M9528 14065 c-6 -14 -14 -25 -18 -25 -4 0 -13 -13 -20 -30 -7 -16
-16 -30 -21 -30 -5 0 -9 -7 -9 -15 0 -8 -4 -15 -10 -15 -5 0 -10 -4 -10 -9 0
-6 -26 -52 -58 -103 -32 -51 -71 -118 -88 -148 -16 -30 -32 -57 -35 -60 -3 -3
-22 -34 -41 -70 -20 -36 -47 -85 -60 -110 -14 -25 -39 -70 -55 -100 -91 -164
-244 -483 -334 -694 -33 -77 -66 -154 -73 -171 -7 -16 -28 -70 -46 -120 -17
-49 -36 -99 -41 -110 -22 -48 -57 -164 -51 -169 3 -3 1 -6 -5 -6 -5 0 -10 -6
-11 -12 0 -7 -20 -78 -45 -158 -24 -80 -44 -148 -45 -152 -1 -5 -2 -9 -3 -10
-5 -18 -39 -153 -43 -173 -2 -11 -11 -47 -19 -80 -20 -77 -75 -338 -82 -390
-4 -22 -9 -49 -12 -60 -3 -11 -7 -31 -9 -45 -4 -33 -12 -89 -19 -120 -2 -13
-7 -42 -10 -65 -3 -22 -8 -58 -12 -80 -9 -58 -10 -63 -17 -143 -4 -40 -9 -83
-12 -95 -6 -31 -15 -141 -29 -337 -25 -359 -16 -946 20 -1280 2 -25 7 -70 10
-100 5 -51 7 -74 19 -177 3 -21 7 -49 10 -63 2 -14 7 -44 10 -67 3 -22 7 -52
10 -65 3 -12 8 -39 11 -58 7 -52 14 -90 25 -140 11 -51 19 -92 26 -135 3 -16
8 -37 11 -45 3 -8 7 -24 8 -35 2 -11 13 -58 25 -105 12 -47 24 -94 26 -105 2
-11 12 -50 23 -88 11 -37 20 -70 20 -72 1 -3 1 -6 2 -7 0 -2 2 -10 4 -18 2 -8
11 -40 20 -70 9 -30 18 -62 20 -70 9 -34 54 -177 63 -200 5 -14 10 -28 11 -32
1 -4 3 -13 6 -20 2 -7 13 -42 24 -78 21 -70 77 -232 91 -265 5 -11 23 -58 40
-105 17 -47 35 -94 40 -105 5 -11 19 -42 31 -70 42 -99 53 -122 135 -293 46
-95 84 -177 84 -182 0 -6 3 -10 8 -10 4 0 13 -15 21 -32 8 -18 25 -50 38 -70
13 -21 23 -44 23 -53 0 -8 4 -15 8 -15 5 0 21 -27 37 -60 16 -33 31 -60 34
-60 4 0 12 -15 20 -32 8 -18 26 -51 41 -73 15 -22 30 -47 34 -55 10 -23 29
-52 54 -87 12 -17 22 -36 22 -42 0 -6 5 -11 10 -11 6 0 10 -5 10 -10 0 -12 41
-73 53 -78 4 -2 7 -8 7 -14 0 -6 14 -27 30 -48 17 -21 30 -43 30 -49 0 -6 4
-11 9 -11 6 0 18 -14 28 -30 9 -17 20 -30 24 -30 3 0 19 19 35 43 16 23 31 44
34 47 4 3 37 52 74 110 101 154 100 153 115 183 8 15 18 27 23 27 4 0 8 5 8
11 0 6 15 37 34 68 86 142 206 372 312 599 24 52 44 95 44 97 0 2 14 34 31 72
17 37 37 82 45 100 8 17 14 34 14 37 0 3 11 29 24 58 22 50 45 109 114 293 36
98 130 383 135 410 2 11 7 28 11 37 4 9 8 22 10 30 1 7 4 18 8 23 5 9 20 63
24 90 1 6 3 12 4 15 1 3 3 12 5 20 2 8 16 58 30 110 15 52 28 104 30 115 2 11
13 58 23 105 11 47 18 88 15 93 -2 4 0 7 4 7 5 0 9 8 9 18 1 16 5 38 19 102 6
26 14 68 20 107 1 11 5 29 8 40 3 10 9 42 12 72 4 30 9 63 12 75 2 12 6 37 9
56 3 19 9 64 14 100 5 36 12 88 15 115 3 28 7 64 9 80 2 17 7 57 10 90 4 33 9
80 12 105 2 25 7 79 9 120 3 41 8 120 11 175 13 195 7 686 -11 880 -2 28 -7
79 -10 115 -4 36 -8 79 -11 95 -5 34 -14 121 -19 180 -2 22 -4 40 -5 40 -1 0
-3 11 -5 25 -9 78 -16 127 -20 140 -2 8 -7 35 -10 60 -5 38 -26 158 -41 235
-2 11 -7 36 -10 55 -4 19 -9 44 -11 55 -2 11 -6 29 -8 40 -1 11 -10 52 -18 90
-9 39 -18 82 -21 95 -3 14 -8 36 -11 50 -3 14 -8 36 -10 50 -6 37 -13 69 -20
90 -3 10 -8 27 -10 37 -7 36 -34 139 -49 193 -9 30 -18 63 -21 73 -5 24 -19
66 -51 161 -14 43 -27 83 -29 90 -1 6 -5 18 -8 26 -3 8 -15 44 -27 80 -22 66
-29 85 -48 130 -6 14 -23 57 -37 95 -15 39 -45 113 -68 165 -23 52 -42 97 -42
100 0 7 1 4 -149 310 -101 206 -190 378 -223 429 -8 12 -28 46 -43 75 -16 28
-68 116 -117 196 -49 80 -96 156 -104 170 -7 13 -18 29 -24 35 -5 7 -26 39
-45 73 -19 34 -38 62 -43 62 -4 0 -13 -11 -19 -25z m32 -697 c8 -13 13 -26 12
-30 -1 -5 2 -8 7 -8 5 0 11 -8 15 -17 3 -10 17 -38 32 -63 14 -25 58 -108 97
-185 40 -77 76 -143 80 -146 5 -3 8 -9 7 -13 -2 -8 29 -77 67 -148 13 -27 21
-48 16 -48 -4 0 -3 -4 3 -8 6 -4 37 -68 69 -142 31 -74 65 -153 75 -175 17
-39 32 -75 35 -85 4 -11 17 -46 25 -65 24 -59 110 -292 115 -310 1 -5 5 -17 8
-25 3 -8 11 -33 17 -55 6 -22 15 -49 19 -60 15 -37 86 -280 95 -325 3 -14 12
-54 21 -90 21 -81 25 -99 31 -129 6 -28 33 -149 38 -171 2 -8 7 -35 11 -60 14
-87 16 -95 21 -111 2 -9 7 -34 9 -55 3 -22 7 -50 10 -64 3 -14 7 -40 10 -58 2
-18 6 -45 9 -60 3 -15 8 -49 12 -77 3 -27 8 -61 10 -75 2 -14 6 -47 9 -75 3
-27 8 -68 10 -90 18 -146 34 -347 39 -483 3 -52 6 -96 9 -98 3 -3 1 -21 -3
-40 -4 -18 -5 -34 -1 -34 10 0 7 -413 -3 -429 -7 -10 -5 -12 4 -6 9 5 11 4 6
-4 -4 -7 -10 -58 -12 -114 -2 -56 -6 -136 -9 -177 -3 -41 -8 -104 -11 -140 -3
-36 -7 -81 -9 -100 -2 -19 -7 -62 -10 -95 -3 -33 -8 -71 -10 -85 -2 -14 -7
-52 -10 -85 -4 -33 -8 -67 -10 -75 -2 -8 -7 -33 -10 -55 -3 -23 -8 -52 -11
-65 -3 -14 -7 -41 -9 -60 -3 -19 -9 -53 -15 -75 -5 -22 -11 -49 -13 -60 -2
-11 -4 75 -4 190 0 116 -4 273 -8 350 -4 77 -9 165 -10 195 -2 30 -4 55 -5 55
0 0 -3 34 -6 75 -2 41 -6 93 -9 115 -2 22 -7 69 -10 105 -4 36 -8 76 -11 90
-3 14 -7 50 -9 80 -3 30 -7 66 -10 80 -4 14 -8 43 -11 65 -4 36 -10 76 -20
130 -2 11 -6 36 -8 55 -12 79 -26 155 -51 270 -3 14 -7 34 -9 45 -5 25 -30
131 -40 173 -13 50 -58 209 -90 317 -4 13 0 2 -81 250 -65 198 -130 383 -160
450 -7 17 -16 41 -20 54 -4 13 -14 39 -21 58 -8 18 -13 34 -12 35 1 2 -5 17
-15 33 -9 17 -30 64 -48 105 -17 41 -38 91 -47 110 -9 19 -16 37 -17 40 -2 12
-112 230 -151 298 l-42 75 -22 -34 c-56 -90 -263 -530 -260 -552 1 -4 -5 -18
-12 -30 -8 -12 -27 -56 -42 -97 -15 -41 -34 -88 -41 -105 -7 -16 -20 -50 -29
-75 -8 -25 -33 -97 -56 -160 -22 -63 -42 -122 -44 -130 -3 -8 -12 -37 -21 -65
-10 -27 -18 -54 -19 -60 -2 -5 -17 -57 -35 -114 -18 -57 -34 -111 -36 -120 -2
-9 -8 -29 -15 -46 -6 -16 -11 -31 -11 -33 2 -4 -10 -56 -16 -72 -3 -8 -7 -19
-8 -25 -2 -5 -8 -30 -15 -55 -7 -25 -14 -53 -16 -62 -2 -10 -6 -26 -9 -35 -6
-24 -65 -283 -69 -308 -4 -24 -24 -137 -31 -180 -10 -60 -15 -91 -20 -130 -3
-22 -8 -56 -11 -75 -4 -19 -8 -51 -9 -70 -3 -41 -14 -144 -20 -180 -2 -14 -6
-61 -9 -105 -4 -44 -8 -107 -11 -140 -14 -159 -24 -394 -29 -658 -2 -103 -6
-191 -10 -194 -3 -4 -7 2 -7 13 -3 54 -14 134 -25 183 -3 14 -7 48 -9 76 -2
29 -7 66 -10 82 -9 53 -16 116 -20 173 -2 30 -6 75 -9 100 -10 86 -26 307 -30
437 -2 50 -6 95 -8 100 -6 13 -2 647 6 758 9 135 19 246 30 340 2 17 7 62 11
100 8 69 12 100 15 100 1 0 3 12 14 105 3 25 8 56 11 70 6 31 26 147 30 177 2
12 6 34 9 50 4 15 8 37 10 48 8 36 46 219 52 245 3 14 19 81 35 150 17 69 32
132 34 140 2 8 4 15 5 15 1 0 3 8 5 17 2 10 13 48 25 85 12 38 23 75 25 83 2
8 29 87 60 175 31 88 58 167 60 175 3 14 116 310 135 355 9 23 23 58 25 65 0
3 11 28 24 55 12 28 24 55 25 60 4 12 17 45 47 110 12 28 23 52 24 55 1 3 8
19 15 35 7 17 14 32 14 35 1 3 13 28 27 55 14 28 26 52 27 55 3 17 97 206 104
208 4 2 8 9 8 16 0 16 120 236 128 236 4 0 14 -10 22 -22z m28 -4680 c68 -144
108 -244 157 -393 24 -73 78 -268 89 -320 22 -107 47 -231 52 -263 2 -15 6
-40 9 -57 2 -16 7 -55 11 -85 3 -30 8 -71 10 -90 23 -182 24 -579 1 -607 -6
-9 -6 -13 2 -13 7 0 10 -3 7 -8 -2 -4 -7 -34 -10 -67 -3 -33 -8 -71 -10 -85
-6 -35 -16 -98 -22 -144 -2 -21 -6 -42 -8 -45 -3 -4 -7 -25 -11 -48 -8 -55
-49 -219 -82 -323 -14 -47 -27 -89 -29 -95 -1 -5 -11 -34 -23 -62 -11 -29 -18
-53 -15 -53 4 0 1 -6 -5 -13 -6 -8 -17 -31 -25 -53 -17 -49 -68 -161 -106
-234 -27 -51 -50 -75 -50 -51 0 5 -25 62 -55 126 -30 63 -55 120 -55 125 0 6
-4 18 -10 28 -9 15 -31 67 -35 82 0 3 -17 55 -37 115 -31 93 -44 137 -64 210
-8 28 -42 180 -49 220 -18 93 -31 181 -39 255 -2 19 -7 55 -10 80 -31 221 -25
626 10 820 3 14 7 43 10 65 7 60 72 348 89 394 8 23 12 41 9 41 -3 0 -2 6 3
13 4 6 8 17 9 22 5 23 78 234 96 275 11 25 24 54 28 65 23 59 113 235 120 235
5 0 22 -28 38 -62z"/>
<path d="M7577 9773 c-1 0 -45 -4 -97 -7 -52 -3 -111 -8 -130 -10 -19 -2 -66
-7 -105 -10 -38 -4 -81 -8 -95 -11 -14 -2 -41 -6 -60 -9 -39 -5 -132 -19 -140
-21 -10 -3 -76 -15 -100 -19 -14 -2 -64 -13 -112 -25 -48 -11 -98 -23 -110
-25 -30 -6 -48 -11 -138 -36 -41 -12 -82 -23 -90 -25 -8 -2 -15 -4 -15 -5 0
-1 -7 -3 -15 -5 -29 -6 -205 -66 -235 -79 -16 -8 -41 -17 -55 -21 -114 -33
-679 -301 -688 -326 -2 -5 -8 -9 -14 -9 -13 0 -182 -101 -186 -112 -2 -4 -8
-8 -13 -8 -11 0 -133 -81 -137 -92 -2 -5 -8 -8 -14 -8 -8 0 -41 -22 -93 -63
-5 -4 -37 -28 -70 -53 -100 -75 -127 -97 -195 -155 -36 -30 -76 -64 -89 -75
-43 -33 -385 -377 -431 -432 -25 -30 -54 -64 -65 -76 -33 -37 -119 -145 -160
-202 -11 -15 -24 -32 -30 -38 -12 -13 -32 -42 -103 -146 -64 -93 -65 -95 -100
-150 -56 -88 -92 -150 -92 -159 0 -5 -4 -11 -8 -13 -13 -5 -212 -384 -212
-403 0 -2 -12 -30 -26 -62 -42 -92 -76 -171 -78 -183 -1 -3 -15 -39 -31 -80
-16 -41 -30 -77 -30 -80 -1 -3 -10 -32 -20 -65 -11 -33 -19 -62 -20 -65 0 -3
-6 -15 -13 -27 -7 -13 -11 -23 -8 -23 2 0 -6 -34 -19 -75 -12 -41 -21 -75 -18
-75 3 0 0 -7 -7 -15 -7 -8 -10 -15 -7 -15 3 0 1 -15 -4 -32 -6 -18 -12 -44
-15 -58 -3 -14 -8 -34 -11 -45 -4 -11 -8 -24 -9 -30 -11 -50 -16 -73 -19 -90
-2 -11 -5 -29 -8 -40 -2 -11 -8 -38 -12 -60 -4 -22 -9 -51 -12 -65 -2 -14 -6
-41 -8 -60 -2 -19 -4 -35 -5 -35 -3 0 -7 -29 -14 -90 -4 -33 -10 -78 -12 -100
-27 -224 -37 -641 -21 -845 13 -170 17 -206 22 -255 3 -27 7 -61 10 -75 2 -14
7 -47 11 -75 3 -27 8 -60 10 -73 2 -12 6 -32 8 -45 2 -12 7 -40 11 -62 4 -22
9 -47 10 -55 2 -8 6 -26 9 -40 3 -14 8 -36 10 -50 9 -55 87 -343 122 -451 21
-63 39 -118 40 -124 1 -9 15 -44 64 -170 16 -42 34 -85 96 -225 15 -36 41 -89
56 -119 15 -29 28 -59 28 -67 0 -8 4 -14 9 -14 5 0 16 -17 25 -37 9 -21 26
-56 38 -78 13 -22 41 -71 62 -109 36 -63 74 -126 93 -151 5 -5 17 -27 28 -47
11 -21 23 -38 27 -38 5 0 8 -7 8 -15 0 -8 4 -15 9 -15 5 0 11 -8 15 -17 3 -10
23 -41 43 -69 21 -28 47 -64 58 -79 58 -80 179 -233 220 -278 17 -18 53 -60
80 -92 57 -66 264 -276 346 -350 31 -27 73 -66 95 -86 21 -19 86 -72 144 -118
58 -46 115 -92 128 -102 12 -10 26 -19 31 -19 5 0 11 -4 13 -8 2 -5 46 -37 98
-73 52 -35 97 -66 100 -69 3 -3 14 -10 25 -17 219 -133 287 -173 295 -173 6 0
10 -5 10 -12 0 -6 3 -9 6 -5 3 3 23 -4 43 -17 47 -29 286 -145 376 -181 39
-16 74 -32 80 -37 5 -4 15 -8 22 -8 7 0 32 -9 56 -19 51 -24 364 -130 403
-137 15 -3 35 -9 46 -15 10 -5 18 -7 18 -5 0 3 11 1 25 -4 14 -5 36 -12 48
-14 12 -2 49 -11 82 -19 33 -9 76 -19 95 -22 19 -3 42 -8 50 -10 26 -7 273
-49 350 -60 209 -27 382 -38 625 -38 171 0 401 8 455 17 14 3 52 7 85 10 33 3
71 8 85 11 14 2 48 7 75 10 98 12 132 18 212 36 24 5 46 8 50 7 5 0 15 2 23 5
8 3 58 15 110 27 52 11 103 23 113 25 9 3 25 7 36 9 10 2 51 14 92 27 41 12
80 22 87 22 6 0 12 4 12 9 0 5 5 6 10 3 6 -3 15 -3 21 1 6 3 72 28 147 54 76
26 158 57 185 68 26 12 48 21 50 20 1 -1 24 9 51 20 27 12 50 22 52 22 7 0
359 173 364 179 5 7 82 49 117 66 13 5 23 13 23 18 0 4 6 7 13 7 13 0 248 149
282 179 12 9 27 20 35 23 14 6 198 142 227 167 6 6 53 45 105 88 122 101 159
135 305 279 l123 122 0 1655 c0 1315 -3 1656 -12 1659 -11 3 -3473 2 -3515 -1
-8 -1 -11 -189 -11 -756 0 -827 -5 -768 53 -709 32 32 136 114 145 114 5 0 15
6 22 13 35 35 259 147 293 147 8 0 15 4 15 9 0 4 8 8 18 8 9 -1 42 7 72 16 30
9 70 19 88 22 17 3 47 8 65 12 34 7 325 10 390 3 20 -2 37 -8 37 -13 0 -4 4
-6 10 -2 5 3 44 -4 87 -15 43 -12 83 -22 90 -23 7 -2 16 -6 19 -10 4 -4 15 -7
24 -7 27 0 239 -104 270 -132 11 -10 22 -18 25 -18 7 0 55 -34 99 -70 46 -36
237 -232 232 -237 -2 -2 7 -16 20 -30 14 -15 39 -52 56 -82 18 -31 35 -58 40
-59 4 -2 8 -12 8 -22 0 -10 4 -21 9 -25 11 -6 74 -162 74 -182 0 -7 4 -13 8
-13 4 0 9 -15 12 -32 4 -25 30 -145 36 -165 5 -18 13 -158 13 -223 -1 -144
-16 -245 -54 -370 -29 -96 -50 -153 -61 -167 -5 -7 -6 -13 -1 -13 5 0 5 -4 -1
-8 -5 -4 -20 -27 -32 -52 -102 -203 -251 -371 -520 -583 -40 -31 -76 -57 -82
-57 -5 0 -11 -4 -13 -8 -12 -30 -330 -210 -478 -272 -41 -17 -88 -37 -105 -44
-34 -15 -197 -69 -265 -87 -50 -14 -54 -15 -90 -23 -14 -3 -36 -8 -50 -11 -14
-4 -36 -8 -50 -10 -14 -2 -25 -4 -25 -5 0 -2 -33 -8 -85 -15 -25 -3 -56 -7
-70 -10 -167 -25 -525 -25 -700 0 -14 2 -45 7 -70 10 -41 6 -240 48 -282 60
-10 3 -26 7 -35 9 -10 3 -49 15 -88 27 -38 13 -72 23 -75 23 -7 2 -69 26 -105
41 -16 8 -42 17 -57 20 -16 4 -28 11 -28 16 0 5 -6 9 -12 9 -7 0 -37 11 -66
25 -29 13 -54 23 -56 22 -1 -1 -9 3 -17 10 -8 6 -43 27 -79 46 -36 19 -100 57
-142 86 -43 28 -82 51 -87 51 -5 0 -11 3 -13 8 -1 4 -30 27 -63 52 -153 114
-376 327 -481 460 -32 41 -62 76 -66 78 -5 2 -8 10 -8 17 0 7 -3 15 -7 17 -10
4 -93 115 -93 123 0 3 -17 32 -37 63 -124 188 -245 472 -313 732 -7 25 -15 52
-18 60 -2 8 -6 22 -7 30 -7 48 -16 93 -20 99 -2 4 -6 27 -9 52 -3 24 -8 60
-11 79 -16 114 -20 198 -19 390 0 118 4 235 7 260 3 25 9 68 12 95 3 28 8 61
10 75 3 14 8 36 10 50 5 25 43 196 48 215 1 6 6 16 10 23 5 6 6 12 3 12 -6 0
64 207 98 290 27 65 127 272 146 300 5 8 37 60 71 115 33 55 65 102 70 103 5
2 9 8 9 13 0 6 5 15 10 22 6 7 33 41 61 77 28 36 69 88 92 115 49 58 287 295
297 295 4 0 23 15 43 33 75 69 306 229 319 221 4 -3 8 -1 8 4 0 9 33 28 165
95 44 23 83 40 88 39 4 -1 7 3 7 8 0 6 6 10 14 10 7 0 40 12 72 27 32 14 64
26 71 26 7 0 13 4 13 9 0 4 3 7 8 6 4 -1 39 9 77 22 72 25 74 25 113 34 12 3
26 7 30 10 5 3 19 7 33 10 13 3 42 10 64 16 22 6 56 13 75 16 19 2 42 7 50 9
27 8 195 33 220 33 8 0 35 3 60 5 25 3 87 7 138 8 l92 3 0 46 c1 59 1 3526 0
3566 l0 31 -106 -1 c-58 -1 -106 -2 -107 -3z"/>
</g>
</svg>
