<svg width="100" height="100" viewBox="0 0 100 100" fill="none" xmlns="http://www.w3.org/2000/svg">
<g clip-path="url(#clip0_32_1608)">
<path d="M66.6667 58.3334H72.9167V70.0834L83.0834 75.9584L79.9584 81.3751L66.6667 73.7084V58.3334ZM100 70.8334C100 78.5689 96.9271 85.9875 91.4573 91.4574C85.9875 96.9272 78.5689 100 70.8334 100C59.2084 100 49.1667 93.1667 44.4584 83.3334H16.6667C14.4566 83.3334 12.337 82.4554 10.7742 80.8926C9.21135 79.3298 8.33337 77.2102 8.33337 75.0001V25.0001C8.33337 20.3751 12.0417 16.6667 16.6667 16.6667H83.3334C85.5435 16.6667 87.6631 17.5447 89.2259 19.1075C90.7887 20.6703 91.6667 22.7899 91.6667 25.0001V50.4167C96.8334 55.6667 100 62.8751 100 70.8334ZM41.6667 70.8334C41.6667 62.6667 45.0417 55.2917 50.4167 50.0001H16.6667V75.0001H41.9584C41.6667 73.6251 41.6667 72.2501 41.6667 70.8334ZM70.8334 50.0001C65.308 50.0001 60.009 52.195 56.102 56.102C52.195 60.009 50 65.3081 50 70.8334C50 76.3588 52.195 81.6578 56.102 85.5648C60.009 89.4718 65.308 91.6667 70.8334 91.6667C76.3587 91.6667 81.6578 89.4718 85.5648 85.5648C89.4718 81.6578 91.6667 76.3588 91.6667 70.8334C91.6667 65.3081 89.4718 60.009 85.5648 56.102C81.6578 52.195 76.3587 50.0001 70.8334 50.0001ZM83.3334 33.3334V25.0001H16.6667V33.3334H83.3334Z" />
</g>
<defs>
<clipPath id="clip0_32_1608">
<rect width="100" height="100"/>
</clipPath>
</defs>
</svg>
