<svg width="100" height="100" viewBox="0 0 100 100" fill="none" xmlns="http://www.w3.org/2000/svg">
<g clip-path="url(#clip0_32_1603)">
<path d="M8.85718 46.7144L91 9.35725M91 9.35725L75.6429 3.57153M91 9.35725L85.2858 24.7144M94.6429 96.5001H76.7858V46.5001C76.7858 45.5529 77.162 44.6445 77.8318 43.9747C78.5016 43.3049 79.41 42.9287 80.3572 42.9287H91.0715C92.0187 42.9287 92.9271 43.3049 93.5969 43.9747C94.2666 44.6445 94.6429 45.5529 94.6429 46.5001V96.5001ZM58.9286 96.5001H41.0715V57.2144C41.0715 56.2672 41.4477 55.3588 42.1175 54.689C42.7873 54.0192 43.6957 53.643 44.6429 53.643H55.3572C56.3044 53.643 57.2128 54.0192 57.8826 54.689C58.5523 55.3588 58.9286 56.2672 58.9286 57.2144V96.5001ZM23.2143 96.5001H5.35718V67.9287C5.35718 66.9815 5.73345 66.0731 6.40322 65.4033C7.073 64.7335 7.9814 64.3572 8.92861 64.3572H19.6429C20.5901 64.3572 21.4985 64.7335 22.1683 65.4033C22.838 66.0731 23.2143 66.9815 23.2143 67.9287V96.5001Z" stroke="white" stroke-width="10.7143" stroke-linecap="round" stroke-linejoin="round"/>
</g>
<defs>
<clipPath id="clip0_32_1603">
<rect width="100" height="100" fill="white"/>
</clipPath>
</defs>
</svg>
