<svg width="100" height="100" viewBox="0 0 100 100" fill="none" xmlns="http://www.w3.org/2000/svg">
<g clip-path="url(#clip0_32_1612)">
<path fill-rule="evenodd" clip-rule="evenodd" d="M51.1563 6.7688L47.6688 6.7938L10.7375 32.0251L10.7625 37.2001L47.6875 61.9688L51.125 61.9938L89.2 37.225L89.2188 32L51.1563 6.7688ZM18.075 34.5813L49.4563 13.1438L81.8063 34.5813L49.4563 55.6313L18.075 34.5813ZM47.6938 77.5938L11.2063 53.125H22.425L49.4563 71.25L77.325 53.125H88.7813L83.7813 56.375C78.1001 55.7961 72.3919 57.1786 67.6052 60.2928C62.8185 63.407 59.2416 68.0654 57.4688 73.4938L51.1375 77.6188L47.6938 77.5938ZM56.275 82.4438L49.4625 86.8813L22.4188 68.75H11.2063L47.6938 93.2188L51.1313 93.2438L57.5063 89.1C56.7951 86.9476 56.3809 84.7082 56.275 82.4438ZM70.8313 65.6625C72.876 64.2235 75.1879 63.2079 77.6309 62.6755C80.0739 62.1432 82.5987 62.1048 85.0568 62.5628C87.5148 63.0207 89.8565 63.9656 91.9439 65.3419C94.0314 66.7182 95.8225 68.4982 97.2118 70.577C98.6012 72.6558 99.5607 74.9915 100.034 77.4466C100.507 79.9018 100.485 82.4268 99.9676 84.8731C99.4505 87.3194 98.4494 89.6376 97.0231 91.6912C95.5969 93.7449 93.7743 95.4925 91.6625 96.8313C87.5288 99.452 82.5341 100.353 77.7455 99.3403C72.9568 98.3282 68.7537 95.4836 66.034 91.4143C63.3143 87.345 62.2937 82.3735 63.19 77.5618C64.0864 72.7501 66.8287 68.4796 70.8313 65.6625ZM81.4438 89.5188L92.6313 74.6L87.6313 70.8501L78.3813 83.1876L72.9063 78.8125L69.0063 83.6876L76.9938 90.0813L81.4438 89.5188Z"/>
</g>
<defs>
<clipPath id="clip0_32_1612">
<rect width="100" height="100"/>
</clipPath>
</defs>
</svg>
