<svg width="186" height="92" viewBox="0 0 186 92" fill="none" xmlns="http://www.w3.org/2000/svg">
<path d="M58.1744 59.1708H69.7382V62.9491H64.2372V89.4971H58.1744V59.1708Z"/>
<path d="M76.594 78.1123L77.6331 62.9491H77.9811L79.0201 78.1123H76.594ZM69.88 89.4971H75.816L76.3778 81.4432H79.2364L79.8007 89.4971H85.7342L82.5723 59.1708H73.0419L69.88 89.4971Z"/>
<path d="M94.4169 78.8829V84.6001C94.4169 85.3707 95.0135 85.5944 95.3615 85.5944C95.9333 85.5944 96.331 85.1221 96.331 84.6001V77.5406C96.331 76.596 96.157 75.552 93.8949 75.552H91.434V72.221H93.9943C95.7095 72.221 96.331 71.8233 96.331 69.959V63.9434C96.331 63.4214 95.9333 62.9491 95.3615 62.9491C95.0135 62.9491 94.4169 63.148 94.4169 63.9434V68.8901H88.3517V64.5897C88.3517 62.4768 88.6002 59.1708 92.8509 59.1708H97.8721C102.123 59.1708 102.396 62.4768 102.396 64.5897V69.437C102.396 72.743 100.084 73.6379 98.2699 73.5633V73.8616C102.347 73.7622 102.396 76.8943 102.396 77.9631V84.0781C102.396 86.2159 102.123 89.4971 97.8721 89.4971H92.8509C88.6002 89.4971 88.3517 86.2159 88.3517 84.0781V78.8829H94.4169Z"/>
<path d="M106.373 59.1708H120.418V89.4971H114.353V62.9491H112.439V89.4971H106.373V59.1708Z"/>
<path d="M130.46 75.8502V62.9491H131.256C131.902 62.9491 132.374 63.496 132.374 64.4655V74.3339C132.374 75.3034 131.902 75.8502 131.256 75.8502H130.46ZM124.395 89.4971H130.46V79.1812H133.94C138.166 79.1812 138.44 75.9 138.44 73.7622V64.5897C138.44 62.4768 138.166 59.1708 133.94 59.1708H124.395V89.4971Z"/>
<path d="M150.396 84.6001C150.396 85.1221 149.999 85.5944 149.427 85.5944C149.079 85.5944 148.482 85.3707 148.482 84.6001V63.9434C148.482 63.148 149.079 62.9491 149.427 62.9491C149.999 62.9491 150.396 63.4214 150.396 63.9434V84.6001ZM142.417 84.0781C142.417 86.2159 142.69 89.4971 146.916 89.4971H151.962C156.188 89.4971 156.462 86.2159 156.462 84.0781V64.5897C156.462 62.4768 156.188 59.1708 151.962 59.1708H146.916C142.69 59.1708 142.417 62.4768 142.417 64.5897V84.0781Z"/>
<path d="M176.198 59.1708H184.103V89.4971H178.038V70.481H177.814L174.682 89.4971H169.835L166.728 70.481H166.504V89.4971H160.439V59.1708H168.319L172.271 80.4986L176.198 59.1708Z"/>
<path d="M50.3145 17.7083C48.4577 9.57983 43.8043 2.96771 43.163 1.89883C42.1488 3.41515 38.4376 9.25668 36.5509 15.7197C34.4902 22.9532 34.1869 29.3665 34.8978 35.6555C35.6038 41.9693 38.271 48.4571 38.271 48.4571C39.6879 51.8378 41.8108 55.4918 43.1928 57.2816C45.2187 54.6467 49.8746 46.7917 51.3262 36.5503C52.1341 30.8331 52.1689 25.8367 50.3145 17.7083ZM43.163 55.2433C42.2507 53.5281 40.8338 50.2718 40.6996 45.2008C40.6648 40.3287 42.6211 36.1278 43.1928 35.2577C43.7024 36.1278 45.3878 39.7818 45.5891 44.7782C45.7258 49.6503 44.1051 53.5032 43.163 55.2433ZM49.7751 31.5042C49.7055 34.6114 49.3351 37.8927 48.8628 39.8564C49.0319 36.4758 48.6267 31.728 47.8512 27.9993C47.0756 24.2955 44.8807 18.0811 43.1282 15.2225C41.51 17.9568 39.5164 23.3261 38.4724 27.9745C37.4234 32.6228 37.3936 38.2655 37.3936 39.9558C37.1152 38.5389 36.4191 33.4431 36.6155 28.3473C36.7796 24.1464 37.7639 19.7963 38.3033 17.8077C40.3615 11.1707 42.6907 6.92007 43.1282 6.24891C43.5657 6.92007 46.4989 12.165 48.0202 17.6586C49.534 23.1521 49.8398 28.4219 49.7751 31.5042Z"/>
<path d="M46.3124 59.1708H32.1958V68.6415C32.2082 68.6415 32.2182 68.6167 32.2306 68.6167C35.5565 65.2858 40.9506 65.2858 44.2791 68.6167C47.605 71.9227 47.605 77.3168 44.2791 80.6477C44.2642 80.6726 44.2493 80.6726 44.2343 80.6975C44.2169 80.6975 44.1995 80.7223 44.1846 80.7472C40.8661 84.0284 36.531 85.669 32.1958 85.669C27.8407 85.669 23.4857 84.0284 20.1647 80.6975C14.3083 74.8559 13.6147 65.7829 18.0792 59.1708C18.6807 58.2759 19.3742 57.4307 20.1647 56.6353C23.4857 53.3044 27.8407 51.6638 32.1958 51.6638V28.8942C15.4617 28.8942 1.89685 42.4416 1.89685 59.1708C1.89685 75.8999 15.4617 89.4722 32.1958 89.4722C40.9208 89.4722 48.7808 85.7684 54.3091 79.8772V59.1708H46.3124Z"/>
</svg>
