<svg width="126" height="98" viewBox="0 0 126 98" fill="none" xmlns="http://www.w3.org/2000/svg">
<g clip-path="url(#clip0_32_1498)">
<path d="M22.8368 97.6403V91.1461C22.8368 88.6619 21.3236 87.0352 18.7259 87.0352C17.4271 87.0352 16.0148 87.4639 15.0438 88.8763C14.2872 87.6909 13.2027 87.0352 11.576 87.0352C10.4916 87.0352 9.40709 87.3631 8.5496 88.5484V87.2496H6.27979V97.6403H8.5496V91.9027C8.5496 90.0616 9.52058 89.1915 11.0338 89.1915C12.547 89.1915 13.3036 90.1625 13.3036 91.9027V97.6403H15.5734V91.9027C15.5734 90.0616 16.6579 89.1915 18.0576 89.1915C19.5708 89.1915 20.3274 90.1625 20.3274 91.9027V97.6403H22.8368ZM56.5058 87.2496H52.8236V84.1097H50.5538V87.2496H48.4984V89.305H50.5538V94.0716C50.5538 96.4549 51.5248 97.8546 54.1225 97.8546C55.0934 97.8546 56.1779 97.5268 56.9345 97.098L56.2788 95.1435C55.6231 95.5722 54.8665 95.6857 54.3242 95.6857C53.2398 95.6857 52.811 95.03 52.811 93.9581V89.305H56.4932V87.2496H56.5058ZM75.774 87.0226C74.4751 87.0226 73.605 87.6783 73.0628 88.5358V87.237H70.793V97.6277H73.0628V91.7766C73.0628 90.049 73.8194 89.0654 75.2317 89.0654C75.6605 89.0654 76.2027 89.1789 76.6441 89.2798L77.2998 87.1108C76.8458 87.0226 76.2027 87.0226 75.774 87.0226ZM46.6573 88.107C45.5728 87.3504 44.0596 87.0226 42.4329 87.0226C39.8352 87.0226 38.1076 88.3214 38.1076 90.3769C38.1076 92.1044 39.4065 93.088 41.6763 93.4033L42.7608 93.5168C43.9461 93.7311 44.6018 94.059 44.6018 94.6012C44.6018 95.3579 43.7317 95.9001 42.2185 95.9001C40.7053 95.9001 39.5074 95.3579 38.7508 94.8156L37.6663 96.5432C38.8516 97.4133 40.4783 97.842 42.105 97.842C45.1315 97.842 46.8717 96.4297 46.8717 94.4878C46.8717 92.6467 45.4593 91.6757 43.303 91.3478L42.2185 91.2344C41.2476 91.1209 40.491 90.9065 40.491 90.2634C40.491 89.5068 41.2476 89.078 42.4455 89.078C43.7444 89.078 45.0432 89.6203 45.6989 89.9481L46.6573 88.107ZM107.047 87.0226C105.748 87.0226 104.878 87.6783 104.336 88.5358V87.237H102.066V97.6277H104.336V91.7766C104.336 90.049 105.092 89.0654 106.505 89.0654C106.934 89.0654 107.476 89.1789 107.917 89.2798L108.573 87.1361C108.131 87.0226 107.488 87.0226 107.047 87.0226ZM78.0438 92.4449C78.0438 95.5848 80.2127 97.8546 83.567 97.8546C85.0802 97.8546 86.1647 97.5268 87.2492 96.6693L86.1647 94.8282C85.2946 95.4839 84.4371 95.7992 83.4535 95.7992C81.6124 95.7992 80.3136 94.5004 80.3136 92.4449C80.3136 90.4904 81.6124 89.1915 83.4535 89.0906C84.4245 89.0906 85.2946 89.4185 86.1647 90.0616L87.2492 88.2205C86.1647 87.3504 85.0802 87.0352 83.567 87.0352C80.2127 87.0226 78.0438 89.305 78.0438 92.4449ZM99.0396 92.4449V87.2496H96.7698V88.5484C96.0132 87.5774 94.9287 87.0352 93.5164 87.0352C90.5908 87.0352 88.321 89.305 88.321 92.4449C88.321 95.5848 90.5908 97.8546 93.5164 97.8546C95.0296 97.8546 96.1141 97.3124 96.7698 96.3414V97.6403H99.0396V92.4449ZM90.7043 92.4449C90.7043 90.6038 91.8897 89.0906 93.8442 89.0906C95.6853 89.0906 96.9841 90.503 96.9841 92.4449C96.9841 94.286 95.6853 95.7992 93.8442 95.7992C91.9023 95.6857 90.7043 94.2734 90.7043 92.4449ZM63.5422 87.0226C60.5158 87.0226 58.3468 89.1915 58.3468 92.4323C58.3468 95.6857 60.5158 97.842 63.6557 97.842C65.1689 97.842 66.6821 97.4133 67.8801 96.4297L66.7956 94.803C65.9255 95.4587 64.841 95.8875 63.7692 95.8875C62.3568 95.8875 60.9571 95.2317 60.6293 93.4033H68.3088C68.3088 93.0754 68.3088 92.861 68.3088 92.5332C68.4097 89.1915 66.4551 87.0226 63.5422 87.0226ZM63.5422 88.9771C64.9545 88.9771 65.9255 89.8472 66.1399 91.4613H60.7301C60.9445 90.0616 61.9155 88.9771 63.5422 88.9771ZM119.935 92.4449V83.1387H117.665V88.5484C116.908 87.5774 115.824 87.0352 114.411 87.0352C111.486 87.0352 109.216 89.305 109.216 92.4449C109.216 95.5848 111.486 97.8546 114.411 97.8546C115.924 97.8546 117.009 97.3124 117.665 96.3414V97.6403H119.935V92.4449ZM111.599 92.4449C111.599 90.6038 112.785 89.0906 114.739 89.0906C116.58 89.0906 117.879 90.503 117.879 92.4449C117.879 94.286 116.58 95.7992 114.739 95.7992C112.785 95.6857 111.599 94.2734 111.599 92.4449ZM35.6108 92.4449V87.2496H33.341V88.5484C32.5844 87.5774 31.5 87.0352 30.0876 87.0352C27.1621 87.0352 24.8923 89.305 24.8923 92.4449C24.8923 95.5848 27.1621 97.8546 30.0876 97.8546C31.6008 97.8546 32.6853 97.3124 33.341 96.3414V97.6403H35.6108V92.4449ZM27.1747 92.4449C27.1747 90.6038 28.36 89.0906 30.3146 89.0906C32.1557 89.0906 33.4545 90.503 33.4545 92.4449C33.4545 94.286 32.1557 95.7992 30.3146 95.7992C28.36 95.6857 27.1747 94.2734 27.1747 92.4449Z"/>
<path d="M79.9984 8.33496H45.9008V69.5948H79.9984V8.33496Z"/>
<path d="M48.1705 38.9652C48.1705 26.519 54.0216 15.4726 63 8.33527C56.3923 3.13991 48.057 0 38.9652 0C17.4271 0 0 17.4271 0 38.9652C0 60.5032 17.4271 77.9303 38.9652 77.9303C48.057 77.9303 56.3923 74.7904 63 69.5951C54.009 62.5587 48.1705 51.4113 48.1705 38.9652Z"/>
<path d="M126 38.9652C126 60.5032 108.573 77.9303 87.0348 77.9303C77.943 77.9303 69.6077 74.7904 63 69.5951C72.0919 62.4452 77.8295 51.4113 77.8295 38.9652C77.8295 26.519 71.9784 15.4726 63 8.33527C69.5951 3.13991 77.9303 0 87.0222 0C108.573 0 126 17.5406 126 38.9652Z"/>
</g>
<defs>
<clipPath id="clip0_32_1498">
<rect width="126" height="97.8543" fill="white"/>
</clipPath>
</defs>
</svg>
