<svg width="272" height="77" viewBox="0 0 272 77" fill="none" xmlns="http://www.w3.org/2000/svg">
<path fill-rule="evenodd" clip-rule="evenodd" d="M43.2145 8.35231C45.3529 8.34024 51.7081 7.80012 54.4001 16.3733C56.2134 22.1483 59.1019 31.608 63.0657 44.7525H64.6799C68.9307 30.8947 71.8507 21.435 73.4401 16.3733C76.1601 7.71081 82.9601 8.35248 85.6801 8.35248L106.666 8.3525V69.9524H85.2766V33.6505H83.8423L71.919 69.9524H55.8266L43.9033 33.6236H42.469V69.9524H21.0801V8.3525L43.2145 8.35231ZM137.38 8.3525V44.6814H139.086L153.59 14.8084C156.405 8.8636 162.405 8.3525 162.405 8.3525H183.104V69.9525H161.268V33.6236H159.562L145.342 63.4966C142.527 69.4145 136.242 69.9525 136.242 69.9525H115.544V8.3525H137.38ZM258.577 37.6252C255.531 45.7699 245.966 51.6028 235.376 51.6028H212.477V69.9525H191.713V37.6252H258.577Z"/>
<path fill-rule="evenodd" clip-rule="evenodd" d="M236.378 8.35254H190.624C191.713 22.0668 204.229 33.8071 217.185 33.8071H260.02C262.492 22.4089 253.982 8.35254 236.378 8.35254Z"/>
</svg>
