<svg width="272" height="78" viewBox="0 0 272 78" fill="none" xmlns="http://www.w3.org/2000/svg">
<g clip-path="url(#clip0_32_1474)">
<path d="M200.573 58.4858C191.284 58.4858 185.513 53.1054 185.513 44.433C185.513 35.4324 190.839 29.8328 199.415 29.8328H200.134C201.21 29.8328 202.691 29.8679 204.714 30.1206V19.2563H210.772V57.5066C210.772 57.5066 205.016 58.4858 200.573 58.4858ZM200.518 34.6024C194.65 34.6024 191.797 37.7699 191.797 44.2821C191.797 50.1292 195.24 53.7635 200.771 53.7635C201.835 53.7635 203.052 53.6933 204.713 53.5512V34.992C203.054 34.7253 201.717 34.6024 200.518 34.6024ZM117.595 57.6083L101.231 29.0519L101.226 57.6083H95.5229V21.4569H103.507L119.871 49.759L119.864 21.4569H125.643V57.6083H117.595ZM169.719 58.1646C166.964 58.1646 164.092 57.8558 160.671 57.1977L160.301 57.1275V52.0771L160.842 52.1929C163.858 52.8369 166.462 53.3862 169.068 53.3862C171.172 53.3862 176.074 53.0563 176.074 49.959C176.074 47.3618 172.687 46.709 169.967 46.1879L169.795 46.1528C169.286 46.058 168.807 45.9615 168.403 45.8597C164.413 44.8243 160.155 43.2678 160.155 37.9208C160.155 32.7054 164.283 29.7169 171.481 29.7169C174.936 29.7169 177.444 30.0855 179.46 30.3873L180.44 30.5312V35.4325L179.918 35.3377C177.637 34.9183 174.963 34.4866 172.392 34.4866C169.533 34.4866 166.141 35.0218 166.141 37.5646C166.141 39.6756 168.917 40.2793 172.132 40.9795C176.628 41.9517 182.201 43.173 182.201 49.308C182.201 54.9357 177.656 58.1646 169.719 58.1646ZM227.778 58.1646C221.508 58.1646 215.701 57.0591 215.701 49.0535C215.701 40.3407 224.681 40.3407 230.049 40.3407C230.582 40.3407 233.106 40.4583 233.88 40.4916C233.873 35.6044 233.811 34.4392 226.723 34.4392C223.914 34.4392 220.794 34.9937 218.039 35.4886L217.512 35.5834V30.7576L217.867 30.6821C221.061 30.0328 224.14 29.7169 227.28 29.7169C234.148 29.7169 239.967 30.4083 239.967 38.9298V57.5136L239.55 57.561C234.792 58.0944 231.014 58.1646 227.778 58.1646ZM229.898 44.6524C224.721 44.6524 221.513 45.414 221.513 49.2044C221.513 53.5915 225.606 53.9548 229.445 53.9548C230.877 53.9548 233.455 53.7705 234.243 53.7144V44.8033C233.134 44.7559 230.247 44.6524 229.898 44.6524ZM142.779 58.1646C136.5 58.1646 130.695 57.0591 130.695 49.0535C130.695 40.3407 139.675 40.3407 145.041 40.3407C145.576 40.3407 148.105 40.4583 148.881 40.4916C148.874 35.6044 148.805 34.4392 141.717 34.4392C138.906 34.4392 135.786 34.9937 133.031 35.4886L132.504 35.5834V30.7576L132.868 30.6821C135.962 30.0422 139.114 29.7189 142.274 29.7169C149.14 29.7169 154.961 30.4083 154.961 38.9298V57.5136L154.542 57.561C149.786 58.0944 146.008 58.1646 142.779 58.1646ZM144.89 44.6524C139.715 44.6524 136.514 45.414 136.514 49.2044C136.514 53.5915 140.599 53.9548 144.439 53.9548C145.878 53.9548 148.456 53.7705 149.244 53.7144V44.8033C148.126 44.7559 145.239 44.6524 144.89 44.6524Z"/>
<mask id="mask0_32_1474" style="mask-type:luminance" maskUnits="userSpaceOnUse" x="243" y="28" width="28" height="43">
<path d="M243.923 28.0771H270.293V70.1933H243.923V28.0771Z" fill="#231F20"/>
</mask>
<g mask="url(#mask0_32_1474)">
<path d="M264.089 69.8919V58.0327C261.725 58.3626 260.471 58.3626 259.456 58.3626C257.056 58.3626 254.39 57.8414 252.327 56.971C247.706 55.0494 244.951 50.171 244.951 43.9115C244.951 40.7879 245.713 35.0759 250.805 31.9979C253.362 30.4712 256.378 29.8184 260.916 29.8184C262.54 29.8184 264.733 29.9412 266.851 30.064L270.293 30.243V67.1438L264.089 69.8919ZM260.464 34.5898C254.308 34.588 251.188 37.7292 251.188 43.9115C251.188 51.8714 255.841 53.5438 259.755 53.5438C260.708 53.5438 261.778 53.5438 264.149 53.2419V34.7617C262.292 34.6389 261.436 34.5898 260.464 34.5898Z"/>
</g>
<mask id="mask1_32_1474" style="mask-type:luminance" maskUnits="userSpaceOnUse" x="43" y="0" width="49" height="58">
<path d="M43.8711 0.027832H91.2517V57.9094H43.8711V0.027832Z" fill="#0996C7"/>
</mask>
<g mask="url(#mask1_32_1474)">
<path d="M68.4598 0.027832L48.4231 55.0771C48.1753 55.7549 47.7417 56.3493 47.1719 56.7921C46.6021 57.235 45.9192 57.5085 45.2012 57.5813V57.6076H66.3821C68.0404 57.6076 69.4601 56.5529 69.9883 55.0789L90.032 0.027832H68.4598Z"/>
</g>
<path d="M43.4726 56.7728C44.701 56.7728 45.7767 56.1621 46.4348 55.2373C46.5032 55.1408 46.7436 54.8039 46.9138 54.3459L54.2631 34.1442L49.9637 22.3464C49.7133 21.749 49.3077 21.2294 48.7889 20.8415C48.2701 20.4536 47.657 20.2114 47.0131 20.1402C46.3693 20.069 45.7181 20.1712 45.127 20.4363C44.536 20.7014 44.0266 21.1197 43.6516 21.648C43.5814 21.7445 43.2953 22.1744 43.1725 22.5394L35.8232 42.7341L40.1419 54.5793C40.422 55.2303 40.8868 55.785 41.4787 56.1749C42.0706 56.5647 42.7638 56.7726 43.4726 56.7728Z"/>
<mask id="mask2_32_1474" style="mask-type:luminance" maskUnits="userSpaceOnUse" x="-2" y="17" width="48" height="60">
<path d="M-1.75488 17.5488H45.6258V76.8571H-1.75488V17.5488Z" fill="#0996C7"/>
</mask>
<g mask="url(#mask2_32_1474)">
<path d="M45.0431 19.2754H23.6288C21.9705 19.2754 20.5509 20.3248 20.0156 21.8059L-0.0211182 76.8552H21.5511L41.5896 21.8076C41.8496 21.0914 42.3168 20.4689 42.9319 20.0192C43.5469 19.5694 44.2819 19.313 45.0431 19.2824V19.2754Z"/>
</g>
</g>
<defs>
<clipPath id="clip0_32_1474">
<rect width="272" height="77.2129" fill="white"/>
</clipPath>
</defs>
</svg>
