<svg width="216" height="99" viewBox="0 0 216 99" fill="none" xmlns="http://www.w3.org/2000/svg">
<path d="M105.855 55.4931H109.212V63.0163H111.637L115.989 55.4931H119.658L114.435 64.3226V64.3844L119.97 74.0197H116.176L111.699 65.9362H109.275V74.0197H105.917V55.4912L105.855 55.4931ZM127.493 60.4055C131.532 60.4055 134.828 63.3274 134.828 67.3682C134.828 71.4727 131.595 74.3328 127.555 74.3328C123.512 74.3328 120.279 71.4727 120.279 67.3682C120.217 63.2655 123.45 60.4055 127.493 60.4055ZM137.439 60.7147H140.61V71.1616H144.777V60.7166H147.946V71.1616H152.112V60.7166H155.284V74.0197H137.563V60.7147H137.439ZM164.673 60.4055C168.465 60.4055 170.579 63.2037 170.579 66.686C170.569 67.1232 170.527 67.5591 170.455 67.9904H161.315C161.502 70.2901 163.305 71.5346 165.296 71.5346C166.662 71.5346 168.03 70.9123 169.087 70.1046L170.394 72.468C169.025 73.6468 166.973 74.3946 165.046 74.3946C160.631 74.3946 157.896 71.2235 157.896 67.43C157.896 63.2655 160.693 60.4055 164.673 60.4055ZM172.133 71.2235C173.75 70.9742 174.931 69.6079 174.931 64.8811V60.7166H184.632V74.0197H181.335V63.3873H178.102V64.8792C178.102 70.6611 176.549 74.0197 172.133 74.1434V71.2235ZM194.082 60.4055C197.873 60.4055 199.987 63.2037 199.987 66.686C199.977 67.1232 199.936 67.5591 199.864 67.9904H190.723C190.911 70.2901 192.714 71.5346 194.704 71.5346C196.07 71.5346 197.439 70.9123 198.496 70.1046L199.802 72.468C198.434 73.6468 196.381 74.3946 194.455 74.3946C190.041 74.3946 187.305 71.2235 187.305 67.43C187.305 63.2655 190.103 60.4055 194.082 60.4055ZM202.724 60.7147H206.019V65.8145H207.636L210.869 60.7166H214.537L210.309 67.0571V67.1208L215.034 74.0197H211.18L207.698 68.6127H205.959V74.0197H202.66V60.7147H202.724ZM127.493 71.4727C129.669 71.4727 131.472 69.7934 131.472 67.3063C131.472 64.8811 129.669 63.1399 127.491 63.1399C125.317 63.1399 123.576 64.8212 123.576 67.3063C123.576 69.7934 125.315 71.4727 127.493 71.4727ZM167.222 65.6908C167.222 63.9496 166.04 62.8926 164.548 62.8926C162.87 62.8926 161.626 64.0115 161.315 65.6908H167.222ZM196.631 65.6908C196.631 63.9496 195.45 62.8926 193.958 62.8926C192.277 62.8926 191.034 64.0115 190.723 65.6908H196.631Z"/>
<path d="M152.3 15.1415V46.5403C152.303 46.6552 152.282 46.7694 152.239 46.8761C152.196 46.9828 152.132 47.0798 152.051 47.161C151.97 47.2423 151.873 47.3063 151.766 47.3491C151.659 47.3918 151.545 47.4125 151.43 47.4099H145.026C144.911 47.4125 144.797 47.3918 144.69 47.3491C144.584 47.3063 144.487 47.2423 144.405 47.161C144.324 47.0798 144.26 46.9828 144.217 46.8761C144.175 46.7694 144.154 46.6552 144.156 46.5403V15.1415C144.154 15.0265 144.175 14.9123 144.217 14.8056C144.26 14.6989 144.324 14.602 144.405 14.5207C144.487 14.4394 144.584 14.3754 144.69 14.3327C144.797 14.2899 144.911 14.2692 145.026 14.2719H151.43C151.545 14.2692 151.659 14.2899 151.766 14.3327C151.873 14.3754 151.97 14.4394 152.051 14.5207C152.132 14.602 152.196 14.6989 152.239 14.8056C152.282 14.9123 152.303 15.0265 152.3 15.1415ZM202.289 14.2719C202.538 14.2719 202.85 14.3955 203.159 14.6448C203.346 14.8303 203.346 15.1415 203.284 15.3908L192.714 46.8514C192.65 47.0142 192.539 47.1543 192.395 47.2541C192.251 47.3538 192.081 47.4087 191.906 47.4118H186.186C185.813 47.4118 185.502 47.2243 185.378 46.8514L179.219 28.5103L173.064 46.8494C173 47.0122 172.889 47.1524 172.745 47.2521C172.602 47.3519 172.432 47.4068 172.257 47.4099H166.536C166.163 47.4099 165.852 47.2243 165.729 46.8494L155.158 15.3888C155.096 15.1415 155.096 14.8922 155.282 14.6448C155.407 14.3955 155.718 14.2719 155.966 14.2719H163.116C163.489 14.2719 163.8 14.5192 163.926 14.8922L169.582 33.4825L175.801 14.8922C175.865 14.7294 175.976 14.5892 176.12 14.4895C176.263 14.3898 176.434 14.3349 176.608 14.3318H181.644C182.017 14.3318 182.329 14.5192 182.452 14.8922L188.671 33.4825L194.329 14.8922C194.38 14.7161 194.486 14.5608 194.631 14.4492C194.776 14.3376 194.954 14.2754 195.137 14.2719H202.289ZM213.107 14.2719C213.542 14.2719 213.915 14.6448 213.977 15.1415V46.5403C213.979 46.6552 213.959 46.7694 213.916 46.8761C213.873 46.9828 213.809 47.0798 213.728 47.161C213.647 47.2423 213.55 47.3063 213.443 47.3491C213.336 47.3918 213.222 47.4125 213.107 47.4099H206.703C206.588 47.4125 206.474 47.3918 206.367 47.3491C206.26 47.3063 206.163 47.2423 206.082 47.161C206.001 47.0798 205.937 46.9828 205.894 46.8761C205.851 46.7694 205.831 46.6552 205.833 46.5403V15.1415C205.831 15.0265 205.851 14.9123 205.894 14.8056C205.937 14.6989 206.001 14.602 206.082 14.5207C206.163 14.4394 206.26 14.3754 206.367 14.3327C206.474 14.2899 206.588 14.2692 206.703 14.2719H213.107ZM140.425 46.2929C140.798 46.7277 140.487 47.348 139.926 47.348H132.092C131.938 47.3522 131.785 47.3207 131.645 47.256C131.504 47.1913 131.381 47.0952 131.284 46.9751L129.98 45.3595C127.243 47.0987 124.009 48.1577 120.59 48.1577C111.017 48.1577 103.244 40.3853 103.244 30.8099C103.244 21.2346 111.017 13.4622 120.59 13.4622C130.165 13.4622 137.938 21.2346 137.938 30.8099C137.938 34.2304 136.943 37.4634 135.201 40.1979L140.425 46.2929ZM74.9528 61.5246C76.5702 62.1469 77.1925 64.5702 77.3162 65.6273C77.5655 67.5559 77.007 68.3018 76.3847 68.3018C75.7625 68.3018 74.8909 67.5559 73.9595 66.064C73.0261 64.5702 72.6531 62.8928 73.1517 62.0213C73.4609 61.4609 74.1431 61.2135 74.9528 61.5246ZM65.503 68.5511C66.4982 68.5511 67.6171 68.9859 68.6123 69.8555C70.539 71.473 71.0994 73.3378 70.1042 74.706C69.5438 75.3901 68.6123 75.8249 67.5553 75.8249C66.4982 75.8249 65.3793 75.4519 64.6334 74.7679C62.8922 73.276 62.3956 70.787 63.5125 69.4207C63.9493 68.8603 64.6334 68.5511 65.503 68.5511ZM43.7434 86.5192C20.115 86.5192 0.966187 67.3684 0.966187 43.742C0.966187 20.1157 20.117 0.966797 43.7414 0.966797C67.3678 0.966797 86.5186 20.1176 86.5186 43.742C86.5186 51.7618 84.2808 59.2868 80.4893 65.691C80.3637 65.8766 80.0526 65.8147 79.9907 65.5654C78.4988 55.0586 72.0946 49.2747 62.7685 47.5355C61.9588 47.4099 61.8352 46.9132 62.8922 46.7895C65.7523 46.5403 69.7931 46.6021 71.9072 46.9751C72.0309 45.918 72.0946 44.7991 72.0946 43.6802C72.0946 28.0736 59.4099 15.3888 43.8033 15.3888C28.1986 15.3888 15.5138 28.0736 15.5138 43.6802C15.5138 59.2868 28.1986 71.9716 43.8052 71.9716H45.1096C44.6665 69.4473 44.4787 66.8848 44.5492 64.3228C44.613 62.5817 44.9859 62.3324 45.7319 63.7006C49.649 70.4778 55.2454 76.5708 66.1871 78.9961C75.1402 80.9865 84.0934 83.2862 93.7306 95.5342C94.6002 96.5912 93.2958 97.7101 92.3006 96.8405C82.4778 88.1348 73.5247 85.2747 65.3793 85.2747C56.2387 85.3385 50.0239 86.5192 43.7434 86.5192ZM124.88 39.3283L121.46 35.1619C121.089 34.7271 121.4 34.043 121.958 34.043H129.17C129.543 33.0477 129.731 31.9288 129.731 30.8099C129.731 25.6502 125.875 21.1727 120.59 21.1727C115.307 21.1727 111.449 25.6502 111.449 30.8099C111.449 35.9696 115.307 40.3853 120.59 40.3853C122.082 40.4472 123.576 40.0124 124.88 39.3283Z"/>
</svg>
