<svg width="179" height="58" viewBox="0 0 179 58" fill="none" xmlns="http://www.w3.org/2000/svg">
<g clip-path="url(#clip0_32_1457)">
<path d="M77.5665 57.0956H63.0663L72.1358 1.0166H86.6352L77.5665 57.0956Z"/>
<path d="M130.131 2.3875C127.271 1.25283 122.735 0 117.126 0C102.806 0 92.7225 7.63589 92.6606 18.5529C92.5417 26.6075 99.8802 31.0812 105.369 33.7668C110.979 36.5111 112.886 38.3023 112.886 40.7485C112.829 44.5054 108.353 46.2372 104.178 46.2372C98.3887 46.2372 95.2868 45.3443 90.5729 43.2542L88.6635 42.3582L86.6344 54.9467C90.0353 56.4961 96.301 57.871 102.806 57.9312C118.021 57.9312 127.926 50.4135 128.043 38.7797C128.101 32.3958 124.226 27.5043 115.872 23.5071C110.8 20.9412 107.695 19.211 107.695 16.5857C107.754 14.1989 110.322 11.7543 116.046 11.7543C120.76 11.6346 124.224 12.7677 126.848 13.9016L128.159 14.4971L130.131 2.3875Z"/>
<path d="M149.403 37.2288C150.597 34.0071 155.192 21.5383 155.192 21.5383C155.132 21.6581 156.384 18.2572 157.1 16.1694L158.114 21.0015C158.114 21.0015 160.859 34.425 161.456 37.2288C159.19 37.2288 152.267 37.2288 149.403 37.2288ZM167.302 1.0166H156.086C152.627 1.0166 150 2.02996 148.507 5.6695L126.969 57.0948H142.184C142.184 57.0948 144.689 50.1733 145.227 48.6826C146.896 48.6826 161.697 48.6826 163.844 48.6826C164.26 50.6515 165.574 57.0948 165.574 57.0948H179L167.302 1.0166Z"/>
<path d="M50.9551 1.0166L36.7546 39.2571L35.2028 31.5015C32.5775 22.5525 24.3437 12.8296 15.1553 7.99515L28.1624 57.0361H43.4961L66.288 1.0166H50.9551Z"/>
<path d="M23.5682 1.0166H0.23867L0 2.14969C18.1985 6.80338 30.2509 18.0209 35.2028 31.5038L30.1312 5.73055C29.2963 2.1489 26.7304 1.13475 23.5682 1.0166Z"/>
</g>
<defs>
<clipPath id="clip0_32_1457">
<rect width="179" height="57.9312" fill="white"/>
</clipPath>
</defs>
</svg>
