<svg width="292" height="71" viewBox="0 0 292 71" fill="none" xmlns="http://www.w3.org/2000/svg">
<path d="M16.351 36.766L8.36676 54.7186H2.53394L11.3071 35.5229C9.25125 34.4711 7.6018 32.9412 6.33484 30.9092C5.06787 28.8773 4.44634 26.1282 4.44634 22.6142C4.44634 20.1759 4.80491 18.0244 5.52206 16.1598C6.23922 14.2952 7.21932 12.7653 8.46238 11.5461C9.70545 10.327 11.1637 9.39469 12.8131 8.79706C14.4625 8.17553 16.2315 7.88867 18.0483 7.88867H25.5784V54.7425H20.5344V36.7899H16.351V36.766ZM20.5344 12.0721H17.8571C16.8531 12.0721 15.8729 12.2633 14.9167 12.6219C13.9605 13.0043 13.1 13.5781 12.3589 14.3908C11.6178 15.2036 11.0202 16.2793 10.566 17.618C10.1118 18.9567 9.87278 20.6062 9.87278 22.5903C9.87278 24.4788 10.0879 26.0565 10.4943 27.3235C10.9007 28.5904 11.4744 29.6183 12.1916 30.4072C12.9087 31.1961 13.7693 31.7459 14.7494 32.0806C15.7295 32.4152 16.7574 32.5826 17.8571 32.5826H20.5344V12.0721Z"/>
<path d="M49.8897 21.7061V54.719H44.8458V39.9218H37.244V54.719H32.1283V21.7061H37.244V35.7384H44.8458V21.7061H49.8897ZM76.1614 61.1972H71.5716V54.719H57.4198V61.1972H52.8301V50.5117H54.862C55.603 48.7666 56.2007 46.8303 56.631 44.7028C57.0612 42.5752 57.3959 40.3999 57.635 38.1528C57.874 35.9057 58.0175 33.6108 58.0892 31.2681C58.1609 28.9254 58.1848 26.6784 58.1848 24.4791V21.7061H73.5079V50.5356H76.1375V61.1972H76.1614ZM68.4879 25.8895H62.7985V26.4871C62.7985 28.2322 62.7745 30.1446 62.7028 32.2004C62.6311 34.2802 62.4877 36.3838 62.2725 38.5114C62.0574 40.6389 61.7466 42.7426 61.3642 44.8223C60.9817 46.902 60.4319 48.7905 59.7147 50.5356H68.4879V25.8895ZM98.3691 52.4958C97.3173 53.3325 96.1221 53.9779 94.7595 54.456C93.3969 54.9341 91.8909 55.1732 90.2414 55.1732C86.823 55.1732 84.1456 53.8584 82.1854 51.2049C80.2252 48.5515 79.2451 44.6789 79.2451 39.5871C79.2451 36.9336 79.4364 34.4714 79.7949 32.2482C80.1774 30.0251 80.7511 28.0888 81.5639 26.4393C82.3767 24.7899 83.4046 23.5229 84.6716 22.6145C85.9385 21.7061 87.4445 21.228 89.1896 21.228C90.5522 21.228 91.7953 21.491 92.9188 22.0408C94.0423 22.5906 95.0224 23.4751 95.8113 24.6943C96.6002 25.9134 97.1978 27.4911 97.652 29.4514C98.0823 31.3877 98.2974 33.7543 98.2974 36.5512V39.3719H84.5281C84.5281 43.125 85.0301 45.9697 86.0581 47.8821C87.086 49.7945 88.6159 50.7746 90.6717 50.7746C92.106 50.7746 93.3969 50.5356 94.4965 50.0097C95.6201 49.5077 96.5046 49.0057 97.15 48.5276L98.3691 52.4958ZM89.1896 25.4353C87.6119 25.4353 86.5123 26.3198 85.8429 28.0888C85.1736 29.8577 84.7672 32.2243 84.5998 35.1886H93.0622C93.0622 33.8021 92.9905 32.4873 92.871 31.292C92.7515 30.0968 92.5363 29.045 92.2495 28.1844C91.9626 27.2999 91.5801 26.6306 91.0781 26.1525C90.5761 25.6744 89.9307 25.4353 89.1896 25.4353ZM108.648 38.2723V54.719H103.533V21.7061H108.648V36.9814L116.585 21.7061H121.772L113.573 37.2444L122.944 54.7429H117.374L108.648 38.2723ZM134.92 55.1732C131.382 55.1732 128.609 53.7628 126.601 50.942C124.593 48.1212 123.589 43.8661 123.589 38.2006C123.589 35.6189 123.828 33.2762 124.354 31.1964C124.856 29.0928 125.597 27.3238 126.577 25.8656C127.557 24.4074 128.776 23.26 130.235 22.4472C131.693 21.6344 133.39 21.228 135.302 21.228C136.785 21.228 137.98 21.3954 138.912 21.73C139.82 22.0647 140.657 22.4711 141.398 22.9492L140.681 27.8019C139.988 27.1804 139.151 26.6306 138.219 26.1525C137.287 25.6744 136.283 25.4353 135.231 25.4353C133.39 25.4353 131.884 26.4632 130.713 28.543C129.541 30.5988 128.944 33.7543 128.944 37.9615C128.944 42.121 129.446 45.3482 130.426 47.6192C131.406 49.8902 132.96 51.0137 135.039 51.0137C136.306 51.0137 137.406 50.7986 138.314 50.3683C139.223 49.938 139.988 49.4599 140.609 48.9101L141.781 52.711C140.896 53.452 139.916 54.0496 138.84 54.5038C137.765 54.958 136.45 55.1732 134.92 55.1732Z"/>
<path d="M176.539 54.7187H156.482L156.028 62.5117H153.47V52.113H154.857C155.98 51.1568 156.865 49.4356 157.486 46.9973C158.108 44.559 158.586 41.6426 158.921 38.272C159.279 34.7819 159.518 30.479 159.638 25.3872C159.757 20.2954 159.877 14.4626 159.972 7.9126H176.347V52.1369H179.551V62.5595H176.993L176.539 54.7187ZM173.048 10.4943H162.889C162.793 16.4945 162.674 21.7775 162.506 26.2956C162.339 30.8375 162.124 34.8058 161.861 38.2242C161.55 41.786 161.12 44.7024 160.594 46.9973C160.044 49.2922 159.327 50.9895 158.466 52.0891H173.072V10.4943H173.048Z"/>
<path d="M185.838 38.7268C185.933 43.2927 186.555 46.7589 187.726 49.1494C188.898 51.5399 190.69 52.7352 193.105 52.7352C194.204 52.7352 195.161 52.5678 195.997 52.2093C196.834 51.8507 197.527 51.4204 198.101 50.9423C198.746 50.4642 199.32 49.8427 199.798 49.1494L200.778 51.6355C200.252 52.3766 199.631 53.022 198.89 53.524C198.244 54.0021 197.432 54.4324 196.475 54.791C195.519 55.1496 194.372 55.3408 193.057 55.3408C189.567 55.3408 186.985 53.8348 185.336 50.8228C183.686 47.8107 182.85 43.6034 182.85 38.177C182.85 35.4757 183.089 33.0613 183.567 30.9338C184.045 28.8062 184.714 27.0133 185.575 25.5312C186.435 24.0491 187.439 22.9256 188.611 22.1606C189.782 21.3957 191.073 21.0132 192.483 21.0132C193.918 21.0132 195.209 21.3957 196.356 22.1367C197.479 22.8778 198.436 24.0013 199.177 25.4834C199.918 26.9655 200.444 28.8062 200.754 31.0294C201.065 33.2287 201.089 35.8104 200.826 38.7268H185.838ZM192.459 23.6666C190.714 23.6666 189.208 24.7424 187.965 26.8938C186.722 29.0453 186.029 32.1768 185.909 36.3124H197.91C198.173 31.9139 197.742 28.7106 196.643 26.7026C195.543 24.6946 194.109 23.6666 192.459 23.6666Z"/>
<path d="M220.954 38.9416H209.695V54.7428H206.611V21.7061H209.695V36.312H220.954V21.7061H224.038V54.7189H220.954V38.9416Z"/>
<path d="M231.305 21.7061H234.389V33.9454H236.803C239.959 33.9454 242.469 34.806 244.333 36.5033C246.222 38.2005 247.154 40.7823 247.154 44.2246C247.154 47.7147 246.174 50.3443 244.214 52.0894C242.254 53.8344 239.72 54.7189 236.612 54.7189H231.305V21.7061ZM234.389 36.3837V52.3045H236.349C238.668 52.3045 240.533 51.683 241.991 50.4399C243.449 49.1968 244.142 47.1649 244.142 44.3202C244.142 41.5233 243.497 39.5153 242.182 38.2483C240.867 37.0053 239.027 36.3837 236.684 36.3837H234.389Z"/>
<path d="M255.473 24.3117V54.7189H252.461V21.7061H266.422V24.3356H255.473V24.3117Z"/>
<path d="M286.526 31.7222C286.526 30.8378 286.55 30.0489 286.597 29.3317C286.645 28.6146 286.717 27.8974 286.789 27.2042H286.597C286.382 27.9452 286.119 28.6624 285.809 29.3317C285.498 30.0011 285.163 30.7182 284.828 31.4593L274.095 54.7189H271.466V21.706H274.358V44.631C274.358 45.5154 274.334 46.3043 274.286 47.0454C274.239 47.7864 274.167 48.5275 274.095 49.2685H274.286C274.502 48.5275 274.764 47.7864 275.075 47.0693C275.386 46.3521 275.697 45.6111 276.055 44.87L286.789 21.6821H289.466V54.695H286.526V31.7222Z"/>
</svg>
